HIERARCHY
ROOT SpineBase
{
  OFFSET 0.000000 0.000000 0.000000
  CHANNELS 6 Xposition Yposition Zposition Zrotation Xrotation Yrotation
  JOINT SpineMid
  {
    OFFSET 0.000000 32.065602 0.000000
    CHANNELS 3 Zrotation Xrotation Yrotation
    JOINT SpineShoulder
    {
      OFFSET 0.027178 24.046537 -0.722456
      CHANNELS 3 Zrotation Xrotation Yrotation
      JOINT Neck
      {
        OFFSET -0.011521 7.975131 -0.432621
        CHANNELS 3 Zrotation Xrotation Yrotation
        JOINT Head
        {
          OFFSET -0.834508 14.101319 6.783011
          CHANNELS 3 Zrotation Xrotation Yrotation
          End Site
          {
            OFFSET 0 0 0
          }
        }
      }
      JOINT ShoulderLeft
      {
        OFFSET 1.892095 -5.843820 -13.412629
        CHANNELS 3 Zrotation Xrotation Yrotation
        JOINT ElbowLeft
        {
          OFFSET 5.156463 -28.983416 -7.015104
          CHANNELS 3 Zrotation Xrotation Yrotation
          JOINT WristLeft
          {
            OFFSET 8.276505 -24.197892 0.960899
            CHANNELS 3 Zrotation Xrotation Yrotation
            JOINT HandLeft
            {
              OFFSET -0.794889 -7.556119 4.118411
              CHANNELS 3 Zrotation Xrotation Yrotation
              JOINT HandTipLeft
              {
                OFFSET 1.956022 -7.346291 1.999059
                CHANNELS 3 Zrotation Xrotation Yrotation
                End Site
                {
                  OFFSET 0 0 0
                }
              }
              JOINT ThumbLeft
              {
                OFFSET -5.670958 0.307350 2.586344
                CHANNELS 3 Zrotation Xrotation Yrotation
                End Site
                {
                  OFFSET 0 0 0
                }
              }
            }
          }
        }
      }
      JOINT ShoulderRight
      {
        OFFSET 9.770798 -6.482680 14.735788
        CHANNELS 3 Zrotation Xrotation Yrotation
        JOINT ElbowRight
        {
          OFFSET -18.517728 -28.019751 -2.119168
          CHANNELS 3 Zrotation Xrotation Yrotation
          JOINT WristRight
          {
            OFFSET 3.512084 -22.483775 8.185339
            CHANNELS 3 Zrotation Xrotation Yrotation
            JOINT HandRight
            {
              OFFSET 1.964024 -5.579802 4.307144
              CHANNELS 3 Zrotation Xrotation Yrotation
              JOINT HandTipRight
              {
                OFFSET 0.814630 -3.743064 -0.937129
                CHANNELS 3 Zrotation Xrotation Yrotation
                End Site
                {
                  OFFSET 0 0 0
                }
              }
              JOINT ThumbRight
              {
                OFFSET -2.474067 0.817440 -0.732463
                CHANNELS 3 Zrotation Xrotation Yrotation
                End Site
                {
                  OFFSET 0 0 0
                }
              }
            }
          }
        }
      }
    }
  }
  JOINT HipLeft
  {
    OFFSET -0.965329 1.584399 -8.558685
    CHANNELS 3 Zrotation Xrotation Yrotation
    JOINT KneeLeft
    {
      OFFSET 9.804753 -37.967780 6.225604
      CHANNELS 3 Zrotation Xrotation Yrotation
      JOINT AnkleLeft
      {
        OFFSET -2.428862 -40.542760 5.992013
        CHANNELS 3 Zrotation Xrotation Yrotation
        JOINT FootLeft
        {
          OFFSET 10.633877 -3.256448 -6.034543
          CHANNELS 3 Zrotation Xrotation Yrotation
          End Site
          {
            OFFSET 0 0 0
          }
        }
      }
    }
  }
  JOINT HipRight
  {
    OFFSET 1.629095 -0.256689 1.407426
    CHANNELS 3 Zrotation Xrotation Yrotation
    JOINT KneeRight
    {
      OFFSET -0.356450 -38.713441 5.993519
      CHANNELS 3 Zrotation Xrotation Yrotation
      JOINT AnkleRight
      {
        OFFSET 1.591380 -40.690703 7.349949
        CHANNELS 3 Zrotation Xrotation Yrotation
        JOINT FootRight
        {
          OFFSET 9.409826 -5.088086 -4.478652
          CHANNELS 3 Zrotation Xrotation Yrotation
          End Site
          {
            OFFSET 0 0 0
          }
        }
      }
    }
  }
}
MOTION
Frames: 13
Frame Time: 0.033333
-28.948562 84.748918 324.115477 -0.000000 0.000000 -75.408368 -0.000000 0.000000 75.408368 -0.000000 0.000000 0.000000 -0.000000 0.000000 0.000000 0.000000 0.000000 0.000000 -0.000000 0.000000 0.000000 -0.000000 0.000000 0.000000 -0.000000 0.000000 0.000000 -0.000000 0.000000 0.000000 0.000000 0.000000 0.000000 0.000000 0.000000 0.000000 -0.000000 0.000000 0.000000 -0.000000 0.000000 0.000000 -0.000000 0.000000 0.000000 -0.000000 0.000000 0.000000 0.000000 0.000000 0.000000 0.000000 0.000000 0.000000 -0.000000 0.000000 75.408368 -0.000000 0.000000 0.000000 -0.000000 0.000000 0.000000 0.000000 0.000000 0.000000 -0.000000 0.000000 75.408368 -0.000000 0.000000 0.000000 -0.000000 0.000000 0.000000 0.000000 0.000000 0.000000
-29.254466 84.779983 324.587838 -0.071127 -0.395727 -75.789665 -0.366159 0.166094 75.789950 -0.000000 0.000000 0.000000 -0.785298 -0.062872 0.373847 0.000000 0.000000 0.000000 -0.000000 0.000000 0.000000 0.985522 0.505270 0.207038 4.461468 0.352352 2.695860 -3.751042 -0.308449 -2.354422 0.000000 0.000000 0.000000 0.000000 0.000000 0.000000 -0.000000 0.000000 0.000000 -0.000000 0.000000 0.000000 -0.000000 0.000000 0.000000 -0.000000 0.000000 0.000000 0.000000 0.000000 0.000000 0.000000 0.000000 0.000000 -0.366159 0.166094 75.789950 -0.000000 0.000000 0.000000 -0.000000 0.000000 0.000000 0.000000 0.000000 0.000000 -3.425286 1.983151 75.973233 -3.193362 -4.377510 -0.732605 2.522792 5.447127 7.956455 0.000000 0.000000 0.000000
-29.457332 84.747595 324.928975 -0.082460 -0.702781 -76.036191 -0.662117 0.249607 76.037128 -0.242475 -1.017394 -0.016768 -1.182658 0.983374 0.721285 0.000000 0.000000 0.000000 1.026346 1.476961 -0.112383 1.110221 0.503078 0.505599 8.382632 1.116830 5.058919 -7.280076 -0.921690 -4.559561 0.000000 0.000000 0.000000 0.000000 0.000000 0.000000 0.242216 1.017456 0.012464 -0.000000 0.000000 0.000000 -0.000000 0.000000 0.000000 -0.000000 0.000000 0.000000 0.000000 0.000000 0.000000 0.000000 0.000000 0.000000 -1.507215 0.888896 76.365586 -0.422029 -0.971963 -0.323642 -0.000000 0.000000 0.000000 0.000000 0.000000 0.000000 -6.596521 3.621945 76.466128 -5.894901 -8.508550 -1.653643 3.964860 10.033089 14.449776 0.000000 0.000000 0.000000
-29.557160 84.651754 325.138886 -0.034544 -0.921723 -76.148414 -0.886654 0.254198 76.150103 -0.303390 -1.409576 -0.022212 -1.615429 1.498829 0.991874 0.000000 0.000000 0.000000 1.495919 2.050067 -0.195381 1.526381 0.723897 0.734439 11.568356 2.181279 6.947045 -10.464293 -1.868301 -6.517477 0.000000 0.000000 0.000000 0.000000 0.000000 0.000000 0.302936 1.409674 0.014753 -0.000000 0.000000 0.000000 -0.000000 0.000000 0.000000 -0.000000 0.000000 0.000000 0.000000 0.000000 0.000000 0.000000 0.000000 0.000000 -2.005987 1.050435 76.575840 -0.514553 -1.273576 -0.418712 -0.000000 0.000000 0.000000 0.000000 0.000000 0.000000 -9.430604 4.894372 76.837727 -8.088132 -12.326138 -2.643282 4.642562 13.646094 19.456841 0.000000 0.000000 0.000000
-29.553949 84.492460 325.217572 0.071982 -1.053273 -76.125824 -0.273700 -0.168688 76.124257 -0.166116 -0.894507 -0.017559 -1.942632 2.030850 1.196842 0.000000 0.000000 0.000000 1.939612 2.513519 -0.293731 1.836867 0.914780 0.945834 13.920636 3.430368 8.289763 -13.233762 -3.170442 -8.176360 0.000000 0.000000 0.000000 0.000000 0.000000 0.000000 -0.462428 2.153608 -0.182924 0.786550 -0.428293 0.227600 -0.000000 0.000000 0.000000 -0.000000 0.000000 0.000000 0.000000 0.000000 0.000000 0.000000 0.000000 0.000000 -2.334165 1.034422 76.604281 -0.528627 -1.456447 -0.469109 -0.000000 0.000000 0.000000 0.000000 0.000000 0.000000 -11.852697 5.784274 77.038901 -9.738173 -15.783017 -3.584702 4.790787 16.323470 23.036854 0.000000 0.000000 0.000000
-29.447700 84.269714 325.165033 0.236384 -1.098282 -75.966975 -0.249717 -0.256177 75.970126 -0.230466 -1.037366 -0.019008 -2.164280 2.579553 1.332693 0.000000 0.000000 0.000000 2.360123 2.867764 -0.405808 2.033142 1.070083 1.139426 15.416245 4.772715 9.072440 -15.552544 -4.839264 -9.522098 0.000000 0.000000 0.000000 0.000000 0.000000 0.000000 -1.396420 2.431964 -0.106348 1.699042 -0.472167 0.192486 -0.000000 0.000000 0.000000 -0.000000 0.000000 0.000000 0.000000 0.000000 0.000000 0.000000 0.000000 0.000000 -2.493374 0.844420 76.448606 -0.463770 -1.521586 -0.474619 -0.000000 0.000000 0.000000 0.000000 0.000000 0.000000 -13.799225 6.277799 77.024622 -10.794203 -18.845737 -4.367331 4.549448 18.137862 25.253236 0.000000 0.000000 0.000000
-28.940389 84.208415 324.742164 0.855589 -0.789292 -75.425195 -0.101920 -0.628858 75.442948 -0.324518 -1.191978 -0.014813 -2.364493 3.120206 1.363065 0.000000 0.000000 0.000000 2.762739 3.133654 -0.558684 2.057074 1.045796 1.325275 15.756333 6.584436 9.080585 -18.508745 -8.028526 -11.104967 0.000000 0.000000 0.000000 0.000000 0.000000 0.000000 -3.242245 2.596161 0.027295 4.482385 -1.078971 0.477711 -1.135036 0.535791 -0.325284 -0.000000 0.000000 0.000000 0.000000 0.000000 0.000000 0.000000 0.000000 0.000000 -2.274313 -0.515229 75.709228 0.208890 -1.283201 -0.294116 -0.000000 0.000000 0.000000 0.000000 0.000000 0.000000 -18.374170 5.023402 76.110657 -9.434342 -25.717899 -4.923683 5.098973 20.559279 24.867805 0.000000 0.000000 0.000000
-28.584777 83.767836 324.377381 1.162071 -0.633846 -74.814723 -0.002496 -0.738655 74.841422 -0.424329 -1.294162 -0.012816 -2.239222 3.890185 1.279165 0.000000 0.000000 0.000000 3.193934 3.295526 -0.713591 1.890664 1.124585 1.505666 15.181863 7.979812 8.544294 -20.307067 -10.388773 -12.019855 0.000000 0.000000 0.000000 0.000000 0.000000 0.000000 -5.225861 2.669049 0.242096 6.840042 -1.345280 0.503964 -1.637384 0.798297 -0.462233 -0.000000 0.000000 0.000000 0.000000 0.000000 0.000000 0.000000 0.000000 0.000000 -2.093448 -1.124171 74.997333 0.467516 -1.093420 -0.200726 -0.000000 0.000000 0.000000 0.000000 0.000000 0.000000 -18.503066 4.677253 75.355120 -9.840167 -26.242888 -5.275379 9.365517 20.014602 18.770884 0.000000 0.000000 0.000000
-28.633868 83.064336 324.248752 0.898311 -0.792327 -74.976679 0.004271 -0.451572 75.001810 -0.506760 -1.317094 -0.016976 -1.884400 4.638035 1.177712 0.000000 0.000000 0.000000 3.741532 3.396624 -0.856883 1.668849 1.238577 1.656440 14.301189 9.603450 7.727030 -20.963867 -12.596882 -12.360417 0.000000 0.000000 0.000000 0.000000 0.000000 0.000000 -7.007010 2.691880 0.515184 9.199061 -1.560568 0.481359 -2.149633 1.073544 -0.598628 -0.000000 0.000000 0.000000 0.000000 0.000000 0.000000 0.000000 0.000000 0.000000 -1.996357 -0.516317 75.206668 0.113719 -1.002396 -0.238819 -0.000000 0.000000 0.000000 0.000000 0.000000 0.000000 -14.606689 5.821750 75.896614 -12.128398 -22.541438 -5.463318 8.115257 19.377357 19.853934 0.000000 0.000000 0.000000
-28.549159 82.167904 324.034581 0.760612 -0.910586 -74.459920 0.008956 -0.200132 74.486130 -0.547213 -1.264224 -0.015301 -1.863749 5.147980 1.163951 0.000000 0.000000 0.000000 4.109177 3.296578 -0.999545 1.260293 1.408895 1.789221 13.060253 11.064608 6.668020 -20.101218 -15.427758 -12.044014 0.000000 0.000000 0.000000 0.000000 0.000000 0.000000 -8.701477 2.511957 0.797896 11.329041 -1.702118 0.401031 -2.652895 1.352601 -0.729120 -0.000000 0.000000 0.000000 0.000000 0.000000 0.000000 0.000000 0.000000 0.000000 -1.081059 -0.488865 74.461352 -0.000000 0.000000 0.000000 -0.000000 0.000000 0.000000 0.000000 0.000000 0.000000 -9.119877 7.379461 75.714034 -15.564358 -18.813819 -5.728517 7.121833 24.727114 27.991116 0.000000 0.000000 0.000000
-28.335654 81.228757 323.752605 0.709622 -0.945478 -73.420669 0.022593 -0.110870 73.447143 -0.561782 -1.149575 -0.014556 -2.219497 5.226467 1.350036 0.000000 0.000000 0.000000 4.335517 3.115549 -1.078888 0.858245 1.598853 1.883795 12.014381 9.998523 6.280663 -16.756859 -15.514726 -10.343406 0.000000 0.000000 0.000000 0.000000 0.000000 0.000000 -9.600667 2.370452 0.905596 12.420773 -1.784866 0.378483 -2.870471 1.462367 -0.786869 -0.000000 0.000000 0.000000 0.000000 0.000000 0.000000 0.000000 0.000000 0.000000 -1.108637 -0.410353 73.422554 -0.000000 0.000000 0.000000 -0.000000 0.000000 0.000000 0.000000 0.000000 0.000000 -1.728848 11.099527 75.141428 -21.958287 -12.565540 -5.789804 4.155875 25.064158 34.449337 0.000000 0.000000 0.000000
-28.333927 80.713728 323.497938 0.594070 -1.081553 -72.760341 0.001206 -0.189026 72.781663 -0.501275 -1.108899 -0.017559 -2.789048 5.211400 1.730986 0.000000 0.000000 0.000000 4.587725 3.089031 -1.132539 0.195983 1.667449 1.897010 11.197026 8.115594 6.053191 -13.167299 -14.558014 -8.596395 0.000000 0.000000 0.000000 0.000000 0.000000 0.000000 -9.472301 2.405412 0.961545 12.380274 -1.700375 0.318071 -2.824643 1.430155 -0.776369 -0.000000 0.000000 0.000000 0.000000 0.000000 0.000000 0.000000 0.000000 0.000000 -0.782666 0.905997 72.944704 -1.227202 0.069485 -0.183069 -0.000000 0.000000 0.000000 0.000000 0.000000 0.000000 5.426185 13.511655 74.357402 -26.710729 -5.500686 -4.677038 3.238134 24.025052 37.147731 0.000000 0.000000 0.000000
-28.040234 79.712307 323.405810 0.335824 -1.183210 -71.484699 0.051558 -0.097064 71.498464 -0.445878 -1.028949 -0.019366 0.023074 5.157665 0.264436 0.000000 0.000000 0.000000 4.591640 3.065998 -1.115178 0.925606 1.201353 1.742862 10.239247 6.246991 6.450824 -10.575498 -13.678418 -7.764959 0.000000 0.000000 0.000000 0.000000 0.000000 0.000000 -8.633268 2.336905 0.955341 11.471240 -1.502245 0.225126 -2.656749 1.347397 -0.731422 -0.000000 0.000000 0.000000 0.000000 0.000000 0.000000 0.000000 0.000000 0.000000 -0.271446 2.032962 71.754575 -2.813063 0.885606 -0.401294 0.452716 -0.415368 1.055865 0.000000 0.000000 0.000000 12.925246 15.675847 72.597074 -31.181101 1.941589 -2.853311 4.094220 22.512570 36.651108 0.000000 0.000000 0.000000
